<?xml version="1.0" standalone="no"?>
<!DOCTYPE svg PUBLIC "-//W3C//DTD SVG 1.1//EN"
  "http://www.w3.org/Graphics/SVG/1.1/DTD/svg11.dtd">
<svg version="1.1" xmlns="http://www.w3.org/2000/svg" xmlns:xlink="http://www.w3.org/1999/xlink" width="3841" height="2248" viewBox="-1537 -587 3841 2248" id="ccdiagram"><filter id="grayscale"><feColorMatrix type="saturate" values="0"></feColorMatrix></filter><filter id="highlight"><feColorMatrix type="matrix" color-interpolation-filters="sRGB" values="0.20338 0 0 0 0
                0 0.58474 0 0 0
                0 0 0.97033 0 0
                0 0 0 1 0"></feColorMatrix></filter><defs><style type="text/css">@import url('https://fonts.googleapis.com/css2?family=Noto+Sans:ital,wght@0,100..900;1,100..900&amp;family=Roboto+Mono:ital,wght@0,100..700;1,100..700&amp;display=swap');</style></defs><g><rect x="-1537" y="-587" width="3841" height="2248" fill="#ffffff" id="interactionLayer"></rect><g pointer-events="auto"><g><g class="cloud-maps_raptor_node" id="b0899b73-47d7-416d-b5c4-c06c26beae7d"><svg x="192" y="19" overflow="visible"><g fill="#e8e8e8"><polygon points="0 0, 496 287, -384 796, -880 509" stroke="#e8e8e8" stroke-width="40"></polygon></g></svg></g></g><g><g><g><polygon points="-720 527, -624 583, -672 611, -704 611, -768 574, -768 555" fill="#4286c5"></polygon></g></g></g><g><g class="cloud-maps_raptor_node" id="6ed75bb7-489c-4360-ba50-dd5a96ffaa7b"><svg x="768" y="352" overflow="visible"><g fill="#e8e8e8"><polygon points="0 0, 480 278, -400 786, -880 509" stroke="#e8e8e8" stroke-width="40"></polygon></g></svg></g></g><g><g><g><polygon points="272 1101, 368 1156, 320 1184, 288 1184, 224 1147, 224 1129" fill="#4286c5"></polygon></g></g></g></g><g pointer-events="auto"><g></g><g><g class="cloud-maps_raptor_node" id="02273958-a1a7-4d1b-8a50-3dc71faf308f"><svg x="144" y="176" overflow="visible"><polygon points="0 0, 864 500, 800 537, -64 37" fill="#f5b720"></polygon><polygon points="0 0, 864 500, 800 537, -64 37" fill="none" stroke-width="20" stroke="#f5b720" opacity="1"></polygon><g cursor="nwse-resize"><polygon points="0 0, -19 -11, 13 -30, -83 -11, -115 44, -83 26, -64 37" fill="#f5b720"></polygon><polygon points="864 500, 883 511, 915 492, 883 548, 787 566, 819 548, 800 537" fill="#f5b720"></polygon></g></svg></g></g><g></g></g><g pointer-events="auto"><g><polygon points="160 648, 192 666, 268 622, 288 634, 288 592, 216 592, 236 604, 160 648" stroke-linejoin="miter" fill="#f44336" stroke="none"></polygon><text font-family="Noto Sans" font-weight="700" font-size="14pt" fill="white" transform="translate(252 619) matrix(0.707 -0.409 0.707 0.409 0 0) rotate(0)" text-anchor="end">80 TCP</text></g></g><g pointer-events="auto"><g><g class="cloud-maps_raptor_node" id="10ced7d1-1207-40d9-b946-9c5f01c69e68"><g><g><polygon points="112 620, 240 694, 112 768, -16 694" stroke="#f44336" stroke-width="8" fill="none"></polygon></g><svg x="112" y="620" overflow="visible"><clipPath id="clip-10ced7d1-1207-40d9-b946-9c5f01c69e68"><polygon points="64 0, 128 37, 64 74, 0 37"></polygon></clipPath><rect transform="matrix(0.707 0.409 -0.707 0.409 0 0)" x="40.7025" y="-24.5225" rx="12" ry="12" width="73.18522064208985" height="36.045" fill="#fcd9d6" opacity="0.8"></rect><g clip-path="url(#clip-10ced7d1-1207-40d9-b946-9c5f01c69e68)" font-family="Noto Sans" font-weight="bold" font-size="20pt" fill="#f44336"><text transform="matrix(0.707 0.409 -0.707 0.409 0 0)" x="45.225" y="4"><tspan>sg-lb</tspan></text></g></svg></g></g></g><g><g class="cloud-maps_raptor_node" id="4dc4dce3-396a-448e-8762-b6e9f3e4149a"><g><g><polygon points="144 -83, 1456 675, 944 971, -368 213" stroke="#ff5722" stroke-width="8" fill="none"></polygon></g><svg x="144" y="-83" overflow="visible"><clipPath id="clip-4dc4dce3-396a-448e-8762-b6e9f3e4149a"><polygon points="64 0, 1312 722, 1248 759, 0 37"></polygon></clipPath><rect transform="matrix(0.707 0.409 -0.707 0.409 0 0)" x="36.18" y="-49.045" rx="12" ry="12" width="196.39479431152344" height="72.09" fill="#ffddd2" opacity="0.8"></rect><g clip-path="url(#clip-4dc4dce3-396a-448e-8762-b6e9f3e4149a)" font-family="Noto Sans" font-weight="bold" font-size="40pt" fill="#ff5722"><text transform="matrix(0.707 0.409 -0.707 0.409 0 0)" x="45.225" y="4"><tspan>sg-app</tspan></text></g></svg></g></g></g></g><g pointer-events="auto"></g><g pointer-events="auto"><g><g class="cloud-maps_raptor_node" id="85b31ed0-2677-4710-b3f8-11db02392ecf"><g><g><polygon points="448 -555, 2272 500, 319 1629, -1505 574" stroke="#000000" stroke-width="8" fill="none"></polygon></g><svg x="448" y="-555" overflow="visible"><clipPath id="clip-85b31ed0-2677-4710-b3f8-11db02392ecf"><polygon points="64 0, 1824 1018, 1760 1055, 0 37"></polygon></clipPath><rect transform="matrix(0.707 0.409 -0.707 0.409 0 0)" x="36.18" y="-49.045" rx="12" ry="12" width="257.6292608642578" height="72.09" fill="#ccc" opacity="0.8"></rect><g clip-path="url(#clip-85b31ed0-2677-4710-b3f8-11db02392ecf)" font-family="Noto Sans" font-weight="bold" font-size="40pt" fill="#000000"><text transform="matrix(0.707 0.409 -0.707 0.409 0 0)" x="45.225" y="4"><tspan>us-east-1</tspan></text></g></svg></g></g></g></g><g pointer-events="auto"></g><g pointer-events="auto"><g><g class="cloud-maps_raptor_node" id="cf34fd78-f7c1-4148-81fa-d492c01615de"><g><g><polygon points="304 -324, 1872 583, 319 1481, -1249 574" stroke="#ff9800" stroke-width="8" fill="none"></polygon></g><svg x="304" y="-324" overflow="visible"><clipPath id="clip-cf34fd78-f7c1-4148-81fa-d492c01615de"><polygon points="64 0, 1568 870, 1504 907, 0 37"></polygon></clipPath><rect transform="matrix(0.707 0.409 -0.707 0.409 0 0)" x="36.18" y="-49.045" rx="12" ry="12" width="369.0831640625" height="72.09" fill="#ffeacc" opacity="0.8"></rect><g clip-path="url(#clip-cf34fd78-f7c1-4148-81fa-d492c01615de)" font-family="Noto Sans" font-weight="bold" font-size="40pt" fill="#ff9800"><text transform="matrix(0.707 0.409 -0.707 0.409 0 0)" x="45.225" y="4"><tspan>udagram-vpc</tspan></text></g></svg></g></g></g></g><g pointer-events="auto"><g><g class="cloud-maps_raptor_node" id="fc65ade9-2c9f-48d2-8524-c39e8329f451"><g><g><polygon points="-270 362, 104 578, -218 764, -591 548" stroke="#8bc34a" stroke-width="8" fill="none"></polygon></g><svg x="-270" y="362" overflow="visible"><clipPath id="clip-fc65ade9-2c9f-48d2-8524-c39e8329f451"><polygon points="64 0, 374 179, 310 216, 0 37"></polygon></clipPath><rect transform="matrix(0.707 0.409 -0.707 0.409 0 0)" x="36.18" y="-49.045" rx="12" ry="12" width="333.49560913085935" height="72.09" fill="#e7f3da" opacity="0.8"></rect><g clip-path="url(#clip-fc65ade9-2c9f-48d2-8524-c39e8329f451)" font-family="Noto Sans" font-weight="bold" font-size="40pt" fill="#8bc34a"><text transform="matrix(0.707 0.409 -0.707 0.409 0 0)" x="45.225" y="4"><tspan>public-net-1</tspan></text></g></svg></g></g></g><g><g class="cloud-maps_raptor_node" id="82f2ef94-0ce5-4167-874e-3dc2b676aa93"><g><g><polygon points="306 695, 680 911, 358 1097, -15 881" stroke="#8bc34a" stroke-width="8" fill="none"></polygon></g><svg x="306" y="695" overflow="visible"><clipPath id="clip-82f2ef94-0ce5-4167-874e-3dc2b676aa93"><polygon points="64 0, 374 179, 310 216, 0 37"></polygon></clipPath><rect transform="matrix(0.707 0.409 -0.707 0.409 0 0)" x="36.18" y="-49.045" rx="12" ry="12" width="333.49560913085935" height="72.09" fill="#e7f3da" opacity="0.8"></rect><g clip-path="url(#clip-82f2ef94-0ce5-4167-874e-3dc2b676aa93)" font-family="Noto Sans" font-weight="bold" font-size="40pt" fill="#8bc34a"><text transform="matrix(0.707 0.409 -0.707 0.409 0 0)" x="45.225" y="4"><tspan>public-net-2</tspan></text></g></svg></g></g></g><g><g class="cloud-maps_raptor_node" id="b42832a6-457b-45b9-9455-f6dec09791f2"><g><g><polygon points="736 370, 1184 629, 864 814, 416 555" stroke="#03a9f4" stroke-width="8" fill="none"></polygon></g><svg x="736" y="370" overflow="visible"><clipPath id="clip-b42832a6-457b-45b9-9455-f6dec09791f2"><polygon points="64 0, 448 222, 384 259, 0 37"></polygon></clipPath><rect transform="matrix(0.707 0.409 -0.707 0.409 0 0)" x="36.18" y="-49.045" rx="12" ry="12" width="362.8869055175781" height="72.09" fill="#ccedfc" opacity="0.8"></rect><g clip-path="url(#clip-b42832a6-457b-45b9-9455-f6dec09791f2)" font-family="Noto Sans" font-weight="bold" font-size="40pt" fill="#03a9f4"><text transform="matrix(0.707 0.409 -0.707 0.409 0 0)" x="45.225" y="4"><tspan>private-net-2</tspan></text></g></svg></g></g></g><g><g class="cloud-maps_raptor_node" id="b2d2da52-ca15-4d96-90b1-c1a664f9ec1f"><g><g><polygon points="208 65, 656 324, 336 509, -112 250" stroke="#03a9f4" stroke-width="8" fill="none"></polygon></g><svg x="208" y="65" overflow="visible"><clipPath id="clip-b2d2da52-ca15-4d96-90b1-c1a664f9ec1f"><polygon points="64 0, 448 222, 384 259, 0 37"></polygon></clipPath><rect transform="matrix(0.707 0.409 -0.707 0.409 0 0)" x="36.18" y="-49.045" rx="12" ry="12" width="362.8869055175781" height="72.09" fill="#ccedfc" opacity="0.8"></rect><g clip-path="url(#clip-b2d2da52-ca15-4d96-90b1-c1a664f9ec1f)" font-family="Noto Sans" font-weight="bold" font-size="40pt" fill="#03a9f4"><text transform="matrix(0.707 0.409 -0.707 0.409 0 0)" x="45.225" y="4"><tspan>private-net-1</tspan></text></g></svg></g></g></g></g><g pointer-events="auto"></g><g pointer-events="auto"></g><g pointer-events="none"></g><g pointer-events="auto"><g id="f9052541-95c0-436c-a993-9ced67b18405-94566065-5551-4aa4-b314-5bf072aa7c2e"><g cursor="cell"><line x1="-273" y1="583" x2="-608" y2="777" stroke="red" stroke-width="8" opacity="0"></line><line x1="-273" y1="583" x2="-608" y2="777" stroke="#000000" stroke-width="2" stroke-linecap="round"></line></g></g><g id="1d9dd38e-c513-4082-8a1b-290dddec0bc2-02273958-a1a7-4d1b-8a50-3dc71faf308f"><g><g cursor="cell"><line x1="378" y1="873" x2="736" y2="666" stroke="red" stroke-width="8" opacity="0"></line><line x1="378" y1="873" x2="736" y2="666" stroke="#000000" stroke-width="2" stroke-dasharray="8,6" stroke-linecap="butt"></line><polygon points="368 879, 394 873, 380 872, 377 864, 368 879" stroke-linejoin="round" fill="#000000" stroke="#000000" stroke-width="1"></polygon></g><g cursor="cell"><line x1="128" y1="296" x2="166" y2="274" stroke="red" stroke-width="8" opacity="0"></line><line x1="128" y1="296" x2="166" y2="274" stroke="#000000" stroke-width="2" stroke-dasharray="8,6" stroke-linecap="none"></line><polygon points="176 268, 150 274, 164 275, 167 283, 176 268" stroke-linejoin="round" fill="#000000" stroke="#000000" stroke-width="1"></polygon></g><g cursor="cell"><line x1="128" y1="315" x2="128" y2="296" stroke="red" stroke-width="8" opacity="0"></line><line x1="128" y1="315" x2="128" y2="296" stroke="#000000" stroke-width="2" stroke-dasharray="8,6" stroke-linecap="butt"></line></g><g cursor="cell"><line x1="240" y1="379" x2="294" y2="348" stroke="red" stroke-width="8" opacity="0"></line><line x1="240" y1="379" x2="294" y2="348" stroke="#000000" stroke-width="2" stroke-dasharray="8,6" stroke-linecap="none"></line><polygon points="304 342, 278 348, 292 349, 295 357, 304 342" stroke-linejoin="round" fill="#000000" stroke="#000000" stroke-width="1"></polygon></g><g cursor="cell"><line x1="640" y1="611" x2="694" y2="579" stroke="red" stroke-width="8" opacity="0"></line><line x1="640" y1="611" x2="694" y2="579" stroke="#000000" stroke-width="2" stroke-dasharray="8,6" stroke-linecap="none"></line><polygon points="704 574, 678 579, 692 581, 695 588, 704 574" stroke-linejoin="round" fill="#000000" stroke="#000000" stroke-width="1"></polygon></g><g cursor="cell"><line x1="784" y1="675" x2="822" y2="653" stroke="red" stroke-width="8" opacity="0"></line><line x1="784" y1="675" x2="822" y2="653" stroke="#000000" stroke-width="2" stroke-dasharray="8,6" stroke-linecap="none"></line><polygon points="832 648, 806 653, 820 655, 823 662, 832 648" stroke-linejoin="round" fill="#000000" stroke="#000000" stroke-width="1"></polygon></g><g cursor="cell"><line x1="752" y1="675" x2="784" y2="675" stroke="red" stroke-width="8" opacity="0"></line><line x1="752" y1="675" x2="784" y2="675" stroke="#000000" stroke-width="2" stroke-dasharray="8,6" stroke-linecap="butt"></line></g><g cursor="cell"><line x1="128" y1="315" x2="752" y2="675" stroke="red" stroke-width="8" opacity="0"></line><line x1="128" y1="315" x2="752" y2="675" stroke="#000000" stroke-width="2" stroke-dasharray="8,6" stroke-linecap="butt"></line></g></g></g><g id="47654718-4829-489e-851e-54b766c3aa94-22b5e657-4262-41d7-9f96-d7200f4ee665"><g cursor="cell"><line x1="-32" y1="1110" x2="-255" y2="981" stroke="red" stroke-width="8" opacity="0"></line><line x1="-32" y1="1110" x2="-255" y2="981" stroke="#000000" stroke-width="2" stroke-linecap="round"></line><polygon points="-264 976, -255 990, -252 983, -239 981, -264 976" stroke-linejoin="round" fill="#000000" stroke="#000000" stroke-width="1"></polygon></g></g><g id="1d9dd38e-c513-4082-8a1b-290dddec0bc2-47654718-4829-489e-851e-54b766c3aa94"><g cursor="cell"><line x1="303" y1="916" x2="-32" y2="1110" stroke="red" stroke-width="8" opacity="0"></line><line x1="303" y1="916" x2="-32" y2="1110" stroke="#000000" stroke-width="2" stroke-linecap="round"></line></g></g><g id="94566065-5551-4aa4-b314-5bf072aa7c2e-22b5e657-4262-41d7-9f96-d7200f4ee665"><g cursor="cell"><line x1="-608" y1="777" x2="-392" y2="902" stroke="red" stroke-width="8" opacity="0"></line><line x1="-608" y1="777" x2="-392" y2="902" stroke="#000000" stroke-width="2" stroke-linecap="round"></line><polygon points="-382 908, -391 893, -395 900, -408 902, -382 908" stroke-linejoin="round" fill="#000000" stroke="#000000" stroke-width="1"></polygon></g></g><g id="22b5e657-4262-41d7-9f96-d7200f4ee665-b1bf0d65-afc7-4bfb-be2f-36ea2cbbcf7c"><g cursor="cell"><line x1="-272" y1="916" x2="70" y2="718" stroke="red" stroke-width="8" opacity="0"></line><line x1="-272" y1="916" x2="70" y2="718" stroke="#000000" stroke-width="2" stroke-linecap="round"></line><polygon points="80 712, 54 718, 68 719, 71 727, 80 712" stroke-linejoin="round" fill="#000000" stroke="#000000" stroke-width="1"></polygon></g></g><g id="d1495017-5fcc-4c16-8a00-e3494b66a88b-22b5e657-4262-41d7-9f96-d7200f4ee665"><g cursor="cell"><line x1="-684" y1="1154" x2="-347" y2="959" stroke="red" stroke-width="8" opacity="0"></line><line x1="-684" y1="1154" x2="-347" y2="959" stroke="#000000" stroke-width="2" stroke-linecap="round"></line><polygon points="-693 1159, -668 1154, -681 1152, -684 1145, -693 1159" stroke-linejoin="round" fill="#000000" stroke="#000000" stroke-width="1"></polygon><polygon points="-337 953, -363 959, -350 961, -347 968, -337 953" stroke-linejoin="round" fill="#000000" stroke="#000000" stroke-width="1"></polygon></g></g><g id="1ae2e048-2241-42ca-8de7-70aebd8816d3-45b61c9b-63a1-4695-a103-88dad44106d4"><g cursor="cell"><line x1="944" y1="194" x2="1162" y2="68" stroke="red" stroke-width="8" opacity="0"></line><line x1="944" y1="194" x2="1162" y2="68" stroke="#000000" stroke-width="2" stroke-linecap="round"></line><polygon points="1171 63, 1146 68, 1159 70, 1162 78, 1171 63" stroke-linejoin="round" fill="#000000" stroke="#000000" stroke-width="1"></polygon></g></g><g id="f9052541-95c0-436c-a993-9ced67b18405-02273958-a1a7-4d1b-8a50-3dc71faf308f"><g><g cursor="cell"><line x1="-198" y1="540" x2="160" y2="333" stroke="red" stroke-width="8" opacity="0"></line><line x1="-198" y1="540" x2="160" y2="333" stroke="#000000" stroke-width="2" stroke-dasharray="8,6" stroke-linecap="butt"></line><polygon points="-208 546, -182 540, -196 539, -199 531, -208 546" stroke-linejoin="round" fill="#000000" stroke="#000000" stroke-width="1"></polygon></g><g cursor="cell"><line x1="128" y1="296" x2="166" y2="274" stroke="red" stroke-width="8" opacity="0"></line><line x1="128" y1="296" x2="166" y2="274" stroke="#000000" stroke-width="2" stroke-dasharray="8,6" stroke-linecap="none"></line><polygon points="176 268, 150 274, 164 275, 167 283, 176 268" stroke-linejoin="round" fill="#000000" stroke="#000000" stroke-width="1"></polygon></g><g cursor="cell"><line x1="128" y1="315" x2="128" y2="296" stroke="red" stroke-width="8" opacity="0"></line><line x1="128" y1="315" x2="128" y2="296" stroke="#000000" stroke-width="2" stroke-dasharray="8,6" stroke-linecap="butt"></line></g><g cursor="cell"><line x1="240" y1="379" x2="294" y2="348" stroke="red" stroke-width="8" opacity="0"></line><line x1="240" y1="379" x2="294" y2="348" stroke="#000000" stroke-width="2" stroke-dasharray="8,6" stroke-linecap="none"></line><polygon points="304 342, 278 348, 292 349, 295 357, 304 342" stroke-linejoin="round" fill="#000000" stroke="#000000" stroke-width="1"></polygon></g><g cursor="cell"><line x1="640" y1="611" x2="694" y2="579" stroke="red" stroke-width="8" opacity="0"></line><line x1="640" y1="611" x2="694" y2="579" stroke="#000000" stroke-width="2" stroke-dasharray="8,6" stroke-linecap="none"></line><polygon points="704 574, 678 579, 692 581, 695 588, 704 574" stroke-linejoin="round" fill="#000000" stroke="#000000" stroke-width="1"></polygon></g><g cursor="cell"><line x1="784" y1="675" x2="822" y2="653" stroke="red" stroke-width="8" opacity="0"></line><line x1="784" y1="675" x2="822" y2="653" stroke="#000000" stroke-width="2" stroke-dasharray="8,6" stroke-linecap="none"></line><polygon points="832 648, 806 653, 820 655, 823 662, 832 648" stroke-linejoin="round" fill="#000000" stroke="#000000" stroke-width="1"></polygon></g><g cursor="cell"><line x1="752" y1="675" x2="784" y2="675" stroke="red" stroke-width="8" opacity="0"></line><line x1="752" y1="675" x2="784" y2="675" stroke="#000000" stroke-width="2" stroke-dasharray="8,6" stroke-linecap="butt"></line></g><g cursor="cell"><line x1="128" y1="315" x2="752" y2="675" stroke="red" stroke-width="8" opacity="0"></line><line x1="128" y1="315" x2="752" y2="675" stroke="#000000" stroke-width="2" stroke-dasharray="8,6" stroke-linecap="butt"></line></g></g></g><g id="1ae2e048-2241-42ca-8de7-70aebd8816d3-02273958-a1a7-4d1b-8a50-3dc71faf308f"><g><g cursor="cell"><line x1="870" y1="237" x2="624" y2="379" stroke="red" stroke-width="8" opacity="0"></line><line x1="870" y1="237" x2="624" y2="379" stroke="#000000" stroke-width="2" stroke-linecap="round"></line><polygon points="880 231, 854 237, 868 238, 871 246, 880 231" stroke-linejoin="round" fill="#000000" stroke="#000000" stroke-width="1"></polygon></g><g cursor="cell"><line x1="272" y1="213" x2="288" y2="204" stroke="red" stroke-width="8" opacity="0"></line><line x1="272" y1="213" x2="288" y2="204" stroke="#000000" stroke-width="2" stroke-linecap="none"></line></g><g cursor="cell"><line x1="320" y1="204" x2="288" y2="204" stroke="red" stroke-width="8" opacity="0"></line><line x1="320" y1="204" x2="288" y2="204" stroke="#000000" stroke-width="2" stroke-linecap="round"></line></g><g cursor="cell"><line x1="400" y1="287" x2="432" y2="268" stroke="red" stroke-width="8" opacity="0"></line><line x1="400" y1="287" x2="432" y2="268" stroke="#000000" stroke-width="2" stroke-linecap="none"></line></g><g cursor="cell"><line x1="800" y1="518" x2="832" y2="500" stroke="red" stroke-width="8" opacity="0"></line><line x1="800" y1="518" x2="832" y2="500" stroke="#000000" stroke-width="2" stroke-linecap="none"></line></g><g cursor="cell"><line x1="928" y1="592" x2="944" y2="583" stroke="red" stroke-width="8" opacity="0"></line><line x1="928" y1="592" x2="944" y2="583" stroke="#000000" stroke-width="2" stroke-linecap="none"></line></g><g cursor="cell"><line x1="944" y1="564" x2="944" y2="583" stroke="red" stroke-width="8" opacity="0"></line><line x1="944" y1="564" x2="944" y2="583" stroke="#000000" stroke-width="2" stroke-linecap="round"></line></g><g cursor="cell"><line x1="320" y1="204" x2="944" y2="564" stroke="red" stroke-width="8" opacity="0"></line><line x1="320" y1="204" x2="944" y2="564" stroke="#000000" stroke-width="2" stroke-linecap="round"></line></g></g></g><g id="b1bf0d65-afc7-4bfb-be2f-36ea2cbbcf7c-02273958-a1a7-4d1b-8a50-3dc71faf308f"><g><g cursor="cell"><line x1="161" y1="665" x2="448" y2="500" stroke="red" stroke-width="8" opacity="0"></line><line x1="161" y1="665" x2="448" y2="500" stroke="#000000" stroke-width="2" stroke-linecap="round"></line></g><g cursor="cell"><line x1="128" y1="296" x2="166" y2="274" stroke="red" stroke-width="8" opacity="0"></line><line x1="128" y1="296" x2="166" y2="274" stroke="#000000" stroke-width="2" stroke-linecap="none"></line><polygon points="176 268, 150 274, 164 275, 167 283, 176 268" stroke-linejoin="round" fill="#000000" stroke="#000000" stroke-width="1"></polygon></g><g cursor="cell"><line x1="128" y1="315" x2="128" y2="296" stroke="red" stroke-width="8" opacity="0"></line><line x1="128" y1="315" x2="128" y2="296" stroke="#000000" stroke-width="2" stroke-linecap="round"></line></g><g cursor="cell"><line x1="240" y1="379" x2="294" y2="348" stroke="red" stroke-width="8" opacity="0"></line><line x1="240" y1="379" x2="294" y2="348" stroke="#000000" stroke-width="2" stroke-linecap="none"></line><polygon points="304 342, 278 348, 292 349, 295 357, 304 342" stroke-linejoin="round" fill="#000000" stroke="#000000" stroke-width="1"></polygon></g><g cursor="cell"><line x1="640" y1="611" x2="694" y2="579" stroke="red" stroke-width="8" opacity="0"></line><line x1="640" y1="611" x2="694" y2="579" stroke="#000000" stroke-width="2" stroke-linecap="none"></line><polygon points="704 574, 678 579, 692 581, 695 588, 704 574" stroke-linejoin="round" fill="#000000" stroke="#000000" stroke-width="1"></polygon></g><g cursor="cell"><line x1="784" y1="675" x2="822" y2="653" stroke="red" stroke-width="8" opacity="0"></line><line x1="784" y1="675" x2="822" y2="653" stroke="#000000" stroke-width="2" stroke-linecap="none"></line><polygon points="832 648, 806 653, 820 655, 823 662, 832 648" stroke-linejoin="round" fill="#000000" stroke="#000000" stroke-width="1"></polygon></g><g cursor="cell"><line x1="752" y1="675" x2="784" y2="675" stroke="red" stroke-width="8" opacity="0"></line><line x1="752" y1="675" x2="784" y2="675" stroke="#000000" stroke-width="2" stroke-linecap="round"></line></g><g cursor="cell"><line x1="128" y1="315" x2="752" y2="675" stroke="red" stroke-width="8" opacity="0"></line><line x1="128" y1="315" x2="752" y2="675" stroke="#000000" stroke-width="2" stroke-linecap="round"></line></g></g></g></g><g pointer-events="auto"><g><g class="cloud-maps_raptor_node" id="45b61c9b-63a1-4695-a103-88dad44106d4"><svg x="1133" y="-46" width="100.626" height="115.695"><path fill="#4286c5" d="M50.313 1.155v56.693L99.41 29.501z" fill-rule="evenodd"></path><path fill="#26527b" d="m1.215 29.501 49.098 28.347V1.155z" fill-rule="evenodd"></path><path fill="none" stroke="#020406" d="M50.313 1.155v56.693"></path><path fill="#26527b" d="M50.313 57.847 99.41 29.501l-24.549 70.866-24.548 14.173z" fill-rule="evenodd"></path><path fill="#326ca2" d="m1.215 29.501 49.098 28.347v56.692l-24.55-14.173z" fill-rule="evenodd"></path><path fill="none" stroke="#0e1e2d" d="m1.215 29.501 49.098 28.347L99.41 29.501 50.313 57.848v56.692"></path><path fill="none" stroke="#000000" d="M50.313 1.155 1.214 29.501l24.549 70.866 24.549 14.173 24.548-14.173 24.549-70.866z" stroke-width="2"></path></svg></g></g><g><g class="cloud-maps_raptor_node" id="1ae2e048-2241-42ca-8de7-70aebd8816d3"><svg x="867" y="187" width="90" height="52.6"><path fill="#e6e7e8" d="M.72 25.956c.262-6.368 4.618-12.703 13.06-17.578 17.353-10.019 45.4-10.07 62.645-.113 8.46 4.884 12.748 11.27 12.874 17.69.13 6.668-4.23 13.374-13.07 18.477-17.353 10.019-45.4 10.07-62.645.114C4.73 39.433.444 32.676.721 25.956Z"></path><ellipse cx="44.851" cy="27.666" fill="none" stroke="#7c8186" rx="35.332" ry="20.398" transform="rotate(-.311)" stroke-miterlimit="10" stroke-width=".703"></ellipse><ellipse cx="44.835" cy="30.492" fill="none" stroke="#7c8186" rx="26.668" ry="15.397" transform="rotate(-.311)" stroke-miterlimit="10" stroke-width=".703"></ellipse><path fill="none" stroke="#7c8186" d="M29.634 41.956c-6.023-4.41-5.476-10.844 1.614-14.937 7.643-4.413 19.996-4.435 27.59-.05 7.176 4.143 7.538 10.736 1.114 15.172" stroke-miterlimit="10" stroke-width=".703"></path><path fill="none" stroke="#7c8186" d="M31.529 42.583c-.897-2.53.365-5.27 3.778-7.242 5.387-3.11 14.093-3.125 19.447-.035 3.488 2.014 4.692 4.85 3.617 7.441" stroke-miterlimit="10" stroke-width=".703"></path><path fill="none" stroke="#7c8186" d="M76.225 44.453s-9.586-7.102-20.578-.272" stroke-miterlimit="10" stroke-width=".703"></path><path fill="none" stroke="#7c8186" d="M87.77 32.941s-18.977-3.125-29.19 9.717" stroke-miterlimit="10" stroke-width=".703"></path><path fill="none" stroke="#7c8186" d="M87.85 19.774s-24.76 3.903-32.447 24.618" stroke-miterlimit="10" stroke-width=".703"></path><path fill="none" stroke="#7c8186" d="M76.42 8.285S57.49 18.775 52.016 45.08M56.57 1.693s-7.5 15.79-9.006 43.872m8.978 5.514s-1.695-4.735-4.827-5.948m-38.135-.565s10.301-7.133 21.293-.302" stroke-miterlimit="10" stroke-width=".703"></path><path fill="none" stroke="#7c8186" d="M2.14 33.055s19.445-3.24 29.67 9.639" stroke-miterlimit="10" stroke-width=".703"></path><path fill="none" stroke="#7c8186" d="M2.304 19.75s24.993 4.093 32.68 24.808" stroke-miterlimit="10" stroke-width=".703"></path><path fill="none" stroke="#7c8186" d="M13.94 8.285s18.92 10.592 24.392 36.898M33.806 1.724s7.492 15.794 8.997 43.876m-9.016 5.612s1.661-4.681 4.686-6.01" stroke-miterlimit="10" stroke-width=".703"></path><path fill="none" stroke="#000000" d="M89.294 25.975c.13 6.668-4.23 13.374-13.07 18.478-17.353 10.018-45.4 10.07-62.644.113C4.725 39.454.44 32.696.716 25.976" stroke-miterlimit="10" stroke-width="1.406"></path><path fill="none" stroke="#000000" d="M.716 25.976c.262-6.368 4.617-12.703 13.06-17.578 17.353-10.018 45.4-10.07 62.644-.113 8.46 4.885 12.748 11.27 12.874 17.69" stroke-miterlimit="10" stroke-width="1.406"></path></svg></g></g><g><g class="cloud-maps_raptor_node" id="4a046ea5-622e-4761-9565-f067371ed8b7"><svg x="144" y="176" width="128" height="111" fill-rule="evenodd" stroke-linejoin="round" stroke-miterlimit="1.414"><path fill="#b8b8bb" d="M64 74v37l64-37V37L64 74Z"></path><path fill="#d2d2d4" d="M0 37v37l64 37V74L0 37Z"></path><path fill="#ececed" d="M0 37 64 0l64 37-64 37L0 37Z"></path><path fill="#83838a" d="m64 73.407 62.111-35.86.514.889-62.487 36.078h-.276L.743 38.072l.514-.89L64 73.407Z"></path><path fill="#83838a" d="M63.486 74h1.027v36h-1.027z"></path><path fill="#000000" d="M128 37v37l-64 37L0 74V37L64 0l64 37ZM2.054 38.185v34.63L64 108.627l61.946-35.812v-34.63L64 2.373 2.054 38.185Z"></path></svg><svg x="202" y="194" width="54" height="36" style="overflow: visible; cursor: default;"><rect transform="matrix(0.707 0.409 -0.707 0.409 0 0)" width="54" height="36" rx="5" ry="5" fill="#4286c5"></rect><text transform="matrix(0.707 0.409 -0.707 0.409 0 0)" font-family="Noto Sans" text-anchor="middle" x="50%" font-weight="normal" font-size="20pt" y="80%" fill="#ffffff">T2</text></svg></g></g><g><g class="cloud-maps_raptor_node" id="fb59b328-eec8-47be-bc16-e6e768934fb3"><svg x="272" y="250" width="128" height="111" fill-rule="evenodd" stroke-linejoin="round" stroke-miterlimit="1.414"><path fill="#b8b8bb" d="M64 74v37l64-37V37L64 74Z"></path><path fill="#d2d2d4" d="M0 37v37l64 37V74L0 37Z"></path><path fill="#ececed" d="M0 37 64 0l64 37-64 37L0 37Z"></path><path fill="#83838a" d="m64 73.407 62.111-35.86.514.889-62.487 36.078h-.276L.743 38.072l.514-.89L64 73.407Z"></path><path fill="#83838a" d="M63.486 74h1.027v36h-1.027z"></path><path fill="#000000" d="M128 37v37l-64 37L0 74V37L64 0l64 37ZM2.054 38.185v34.63L64 108.627l61.946-35.812v-34.63L64 2.373 2.054 38.185Z"></path></svg><svg x="330" y="268" width="54" height="36" style="overflow: visible; cursor: default;"><rect transform="matrix(0.707 0.409 -0.707 0.409 0 0)" width="54" height="36" rx="5" ry="5" fill="#4286c5"></rect><text transform="matrix(0.707 0.409 -0.707 0.409 0 0)" font-family="Noto Sans" text-anchor="middle" x="50%" font-weight="normal" font-size="20pt" y="80%" fill="#ffffff">T2</text></svg></g></g><g><g class="cloud-maps_raptor_node" id="93fda842-a6ca-4f04-ac0b-bdabc0d3baa8"><svg x="672" y="481" width="128" height="111" fill-rule="evenodd" stroke-linejoin="round" stroke-miterlimit="1.414"><path fill="#b8b8bb" d="M64 74v37l64-37V37L64 74Z"></path><path fill="#d2d2d4" d="M0 37v37l64 37V74L0 37Z"></path><path fill="#ececed" d="M0 37 64 0l64 37-64 37L0 37Z"></path><path fill="#83838a" d="m64 73.407 62.111-35.86.514.889-62.487 36.078h-.276L.743 38.072l.514-.89L64 73.407Z"></path><path fill="#83838a" d="M63.486 74h1.027v36h-1.027z"></path><path fill="#000000" d="M128 37v37l-64 37L0 74V37L64 0l64 37ZM2.054 38.185v34.63L64 108.627l61.946-35.812v-34.63L64 2.373 2.054 38.185Z"></path></svg><svg x="730" y="500" width="54" height="36" style="overflow: visible; cursor: default;"><rect transform="matrix(0.707 0.409 -0.707 0.409 0 0)" width="54" height="36" rx="5" ry="5" fill="#4286c5"></rect><text transform="matrix(0.707 0.409 -0.707 0.409 0 0)" font-family="Noto Sans" text-anchor="middle" x="50%" font-weight="normal" font-size="20pt" y="80%" fill="#ffffff">T2</text></svg></g></g><g><g class="cloud-maps_raptor_node" id="9c893bd8-21d9-45e7-87dc-7dd41f85d867"><svg x="800" y="555" width="128" height="111" fill-rule="evenodd" stroke-linejoin="round" stroke-miterlimit="1.414"><path fill="#b8b8bb" d="M64 74v37l64-37V37L64 74Z"></path><path fill="#d2d2d4" d="M0 37v37l64 37V74L0 37Z"></path><path fill="#ececed" d="M0 37 64 0l64 37-64 37L0 37Z"></path><path fill="#83838a" d="m64 73.407 62.111-35.86.514.889-62.487 36.078h-.276L.743 38.072l.514-.89L64 73.407Z"></path><path fill="#83838a" d="M63.486 74h1.027v36h-1.027z"></path><path fill="#000000" d="M128 37v37l-64 37L0 74V37L64 0l64 37ZM2.054 38.185v34.63L64 108.627l61.946-35.812v-34.63L64 2.373 2.054 38.185Z"></path></svg><svg x="858" y="574" width="54" height="36" style="overflow: visible; cursor: default;"><rect transform="matrix(0.707 0.409 -0.707 0.409 0 0)" width="54" height="36" rx="5" ry="5" fill="#4286c5"></rect><text transform="matrix(0.707 0.409 -0.707 0.409 0 0)" font-family="Noto Sans" text-anchor="middle" x="50%" font-weight="normal" font-size="20pt" y="80%" fill="#ffffff">T2</text></svg></g></g><g><g class="cloud-maps_raptor_node" id="b1bf0d65-afc7-4bfb-be2f-36ea2cbbcf7c"><svg x="64" y="629" width="97" height="94" fill-rule="evenodd" stroke-miterlimit="1"><path fill="#ececed" d="M0 18.6v18.6l32.333 18.6h32.334L97 37.2V18.6L64.667 0H32.333L0 18.6Z"></path><path fill="#b8b8bb" d="M64.667 55.8 97 37.2v37.2L64.667 93V55.8Z"></path><path fill="#d2d2d4" d="M32.333 55.8h32.334V93H32.333V55.8ZM0 37.2v37.2L32.333 93V55.8L0 37.2Z"></path><path fill="none" stroke="#83838a" d="M.955 37.877 32.333 55.8h32.334l31.378-17.923M32.333 55.8v36.211M64.667 55.8v36.574" stroke-width="1.04"></path><path fill="#000000" d="M97 18.6v55.8L64.667 93H32.333L0 74.4V18.6L32.333 0h32.334L97 18.6ZM32.865 1.989 1.989 19.751v53.498l30.876 17.762h31.27l30.876-17.762V19.751L64.135 1.989h-31.27Z"></path><path fill="#4286c5" d="M69.912 15.583c11.818 6.798 11.818 17.836 0 24.635-11.817 6.798-31.007 6.798-42.824 0-11.818-6.799-11.818-17.837 0-24.635 11.817-6.799 31.007-6.799 42.824 0Z"></path><path fill="#ffffff" d="M49.584 14.774c1.824 1.049 1.824 2.753 0 3.802-1.824 1.05-4.786 1.05-6.61 0-1.824-1.049-1.824-2.753 0-3.802 1.824-1.05 4.786-1.05 6.61 0Zm10.867 6.251c1.825 1.049 1.825 2.753 0 3.803-1.824 1.049-4.786 1.049-6.61 0-1.824-1.05-1.824-2.754 0-3.803s4.786-1.049 6.61 0Zm10.868 6.251c1.824 1.05 1.824 2.754 0 3.803-1.825 1.049-4.787 1.049-6.611 0-1.824-1.049-1.824-2.753 0-3.803 1.824-1.049 4.786-1.049 6.611 0Zm-32.822 6.378c1.824 1.05 1.824 2.754 0 3.803-1.825 1.05-4.787 1.05-6.611 0-1.824-1.049-1.824-2.753 0-3.803 1.824-1.049 4.786-1.049 6.611 0Z"></path><path fill="#ffffff" d="M47.458 15.878c.453.26.393.717-.133 1.02-.526.303-1.32.337-1.773.076-.452-.26-.392-.717.133-1.019.526-.303 1.321-.337 1.773-.077Z"></path><path fill="#4286c5" d="M48.111 15.621c1.012.582 1.012 1.526 0 2.108-1.011.582-2.653.582-3.664 0-1.012-.582-1.012-1.526 0-2.108 1.011-.582 2.653-.582 3.664 0Zm10.867 6.251c1.012.582 1.012 1.527 0 2.108-1.011.582-2.653.582-3.664 0-1.012-.581-1.012-1.526 0-2.108 1.011-.581 2.653-.581 3.664 0Zm10.868 6.252c1.011.581 1.011 1.526 0 2.108-1.012.582-2.654.582-3.665 0-1.011-.582-1.011-1.527 0-2.108 1.011-.582 2.653-.582 3.665 0Z"></path><path fill="#ffffff" d="M37.024 34.502c1.011.582 1.011 1.526 0 2.108-1.012.582-2.654.582-3.665 0-1.011-.582-1.011-1.526 0-2.108 1.011-.582 2.653-.582 3.665 0Zm15.277-9.33L37.719 33.56l.482.834 14.584-8.388-.484-.834Z"></path><path fill="#ffffff" stroke="#ffffff" d="m46.993 26.089 6.654-1.146-4.324 5.168c.189-1.691-.757-3.313-2.33-4.022Z" stroke-width=".36"></path><path fill="#ffffff" d="m43.488 19.937-6.057 13.797.886.387 6.056-13.798-.885-.386Z"></path><path fill="#ffffff" stroke="#ffffff" d="m39.76 23.812 4.676-4.854-.405 6.716c-.855-1.474-2.582-2.221-4.271-1.862Z" stroke-width=".36"></path><path fill="#ffffff" d="m61.953 30.061-23.985 3.483.14.955 23.985-3.486-.14-.952Z"></path><path fill="#ffffff" stroke="#ffffff" d="m56.68 28.957 6.608 1.387-5.936 3.209c.804-1.503.526-3.358-.672-4.596Z" stroke-width=".36"></path><path fill="#ffffff" stroke="#ffffff" d="m37.96 33.977 13.12-7.547m-13.207 7.497 5.792-13.134m-5.628 13.229 22.478-3.281" stroke-width="1.93"></path></svg></g></g><g><g class="cloud-maps_raptor_node" id="f9052541-95c0-436c-a993-9ced67b18405"><svg x="-318" y="502" width="123" height="108.05"><path fill="#b8b8bb" stroke="#83838a" d="M38.23 22.751v53.738l29.756-16.317v-54.6Z" fill-rule="evenodd" stroke-linejoin="round" stroke-width="1.011"></path><path fill="#d2d2d4" stroke="#83838a" d="m1 8.421 37.23 14.33v53.738L1 44.247Z" fill-rule="evenodd" stroke-linejoin="round"></path><path fill="#ececed" stroke="#83838a" d="M38.23 22.751 67.986 5.573 13.411 1.255 1.001 8.421z" fill-rule="evenodd" stroke-linejoin="round"></path><path fill="none" stroke="#000000" d="m1 44.247 37.23 32.242 29.756-16.317v-54.6l-55.165-4.55-11.82 6.826z" stroke-width="2"></path><path fill="#ececed" stroke="#83838a" d="M84.77 13.794 53.747 31.712l56.04 39.295L122 63.955z" fill-rule="evenodd" stroke-width="1.011"></path><path fill="#d2d2d4" stroke="#83838a" d="M53.747 31.712v53.739l55.847 21.494.194-35.938z" fill-rule="evenodd"></path><path fill="#b8b8bb" stroke="#83838a" d="M109.788 71.007 122 63.955v35.823l-12.406 7.168z" fill-rule="evenodd"></path><path fill="none" stroke="#000000" d="M84.77 13.794 53.747 31.712v53.739l55.847 21.494L122 99.778V63.955z" stroke-width="2"></path><path fill="#4286c5" d="m70.23 74.7-5.769-2.228c-1.062-.41-1.923-.077-1.923.743v4.455c0 .82.861 1.817 1.923 2.227l5.769 2.227c1.062.41 1.923.077 1.923-.742v-4.455c0-.82-.86-1.817-1.923-2.227zm-1.442-4.27 11.538 4.455v2.228l2.884 1.113v-2.227l11.538 4.455v2.227l2.885 1.114v-2.673c0-.982-1.035-2.182-2.308-2.673L83.21 73.772v-2.97l2.404.928c1.062.41 1.923.077 1.923-.743v-4.455c0-.82-.86-1.817-1.923-2.227l-7.692-2.97c-1.062-.41-1.923-.077-1.923.743v4.454c0 .82.861 1.818 1.923 2.228l2.404.928v2.97l-12.115-4.677c-1.272-.492-2.308-.092-2.308.89v2.673l2.885 1.114zm15.865 9.838-5.77-2.227c-1.061-.41-1.922-.077-1.922.742v4.455c0 .82.86 1.817 1.923 2.227l5.769 2.228c1.061.41 1.923.077 1.923-.743v-4.454c0-.82-.862-1.818-1.923-2.228zm14.422 5.569-5.769-2.228c-1.062-.41-1.923-.077-1.923.743v4.455c0 .82.861 1.817 1.923 2.227l5.77 2.227c1.061.41 1.922.077 1.922-.742v-4.455c0-.82-.86-1.817-1.923-2.227z"></path></svg></g></g><g><g class="cloud-maps_raptor_node" id="1d9dd38e-c513-4082-8a1b-290dddec0bc2"><svg x="258" y="835" width="123" height="108.05"><path fill="#b8b8bb" stroke="#83838a" d="M38.23 22.751v53.738l29.756-16.317v-54.6Z" fill-rule="evenodd" stroke-linejoin="round" stroke-width="1.011"></path><path fill="#d2d2d4" stroke="#83838a" d="m1 8.421 37.23 14.33v53.738L1 44.247Z" fill-rule="evenodd" stroke-linejoin="round"></path><path fill="#ececed" stroke="#83838a" d="M38.23 22.751 67.986 5.573 13.411 1.255 1.001 8.421z" fill-rule="evenodd" stroke-linejoin="round"></path><path fill="none" stroke="#000000" d="m1 44.247 37.23 32.242 29.756-16.317v-54.6l-55.165-4.55-11.82 6.826z" stroke-width="2"></path><path fill="#ececed" stroke="#83838a" d="M84.77 13.794 53.747 31.712l56.04 39.295L122 63.955z" fill-rule="evenodd" stroke-width="1.011"></path><path fill="#d2d2d4" stroke="#83838a" d="M53.747 31.712v53.739l55.847 21.494.194-35.938z" fill-rule="evenodd"></path><path fill="#b8b8bb" stroke="#83838a" d="M109.788 71.007 122 63.955v35.823l-12.406 7.168z" fill-rule="evenodd"></path><path fill="none" stroke="#000000" d="M84.77 13.794 53.747 31.712v53.739l55.847 21.494L122 99.778V63.955z" stroke-width="2"></path><path fill="#4286c5" d="m70.23 74.7-5.769-2.228c-1.062-.41-1.923-.077-1.923.743v4.455c0 .82.861 1.817 1.923 2.227l5.769 2.227c1.062.41 1.923.077 1.923-.742v-4.455c0-.82-.86-1.817-1.923-2.227zm-1.442-4.27 11.538 4.455v2.228l2.884 1.113v-2.227l11.538 4.455v2.227l2.885 1.114v-2.673c0-.982-1.035-2.182-2.308-2.673L83.21 73.772v-2.97l2.404.928c1.062.41 1.923.077 1.923-.743v-4.455c0-.82-.86-1.817-1.923-2.227l-7.692-2.97c-1.062-.41-1.923-.077-1.923.743v4.454c0 .82.861 1.818 1.923 2.228l2.404.928v2.97l-12.115-4.677c-1.272-.492-2.308-.092-2.308.89v2.673l2.885 1.114zm15.865 9.838-5.77-2.227c-1.061-.41-1.922-.077-1.922.742v4.455c0 .82.86 1.817 1.923 2.227l5.769 2.228c1.061.41 1.923.077 1.923-.743v-4.454c0-.82-.862-1.818-1.923-2.228zm14.422 5.569-5.769-2.228c-1.062-.41-1.923-.077-1.923.743v4.455c0 .82.861 1.817 1.923 2.227l5.77 2.227c1.061.41 1.922.077 1.922-.742v-4.455c0-.82-.86-1.817-1.923-2.227z"></path></svg></g></g><g><g class="cloud-maps_raptor_node" id="22b5e657-4262-41d7-9f96-d7200f4ee665"><svg x="-382" y="872" width="123" height="108.05"><path fill="#b8b8bb" stroke="#83838a" d="M38.23 22.751v53.738l29.756-16.317v-54.6Z" fill-rule="evenodd" stroke-linejoin="round" stroke-width="1.011"></path><path fill="#d2d2d4" stroke="#83838a" d="m1 8.421 37.23 14.33v53.738L1 44.247Z" fill-rule="evenodd" stroke-linejoin="round"></path><path fill="#ececed" stroke="#83838a" d="M38.23 22.751 67.986 5.573 13.411 1.255 1.001 8.421z" fill-rule="evenodd" stroke-linejoin="round"></path><path fill="none" stroke="#000000" d="m1 44.247 37.23 32.242 29.756-16.317v-54.6l-55.165-4.55-11.82 6.826z" stroke-width="2"></path><path fill="#ececed" stroke="#83838a" d="M84.77 13.794 53.747 31.712l56.04 39.295L122 63.955z" fill-rule="evenodd" stroke-width="1.011"></path><path fill="#d2d2d4" stroke="#83838a" d="M53.747 31.712v53.739l55.847 21.494.194-35.938z" fill-rule="evenodd"></path><path fill="#b8b8bb" stroke="#83838a" d="M109.788 71.007 122 63.955v35.823l-12.406 7.168z" fill-rule="evenodd"></path><path fill="none" stroke="#000000" d="M84.77 13.794 53.747 31.712v53.739l55.847 21.494L122 99.778V63.955z" stroke-width="2"></path><path fill="#4286c5" d="M96.77 78.885c-.268-3.683-3.508-7.996-7.49-9.82a9.625 9.625 0 0 0-1.503-.546c-2.14-3.436-5.466-6.573-9.228-8.295-5.673-2.597-10.428-1.108-11.555 3.294-4.01-.344-6.686 2.01-6.686 6.038 0 5.428 4.802 12.022 10.73 14.735l22.533 10.315c5.331 2.44 9.657.46 9.657-4.42 0-3.795-2.629-8.313-6.458-11.3zm-3.199 12.774L71.038 81.345c-4.151-1.9-7.51-6.514-7.51-10.314 0-3.463 2.796-5.05 6.437-3.862v-.068c0-4.34 3.843-6.1 8.584-3.93 3.588 1.643 6.66 5.063 7.94 8.51.751-.246 1.724-.156 2.79.332 2.367 1.083 4.292 3.726 4.292 5.894 0 .724-.215 1.307-.59 1.719.194.07.396.156.59.245 3.554 1.627 6.438 5.588 6.438 8.842 0 3.254-2.884 4.574-6.438 2.947z"></path></svg></g></g></g><g pointer-events="auto"></g><g pointer-events="auto"><g><g class="cloud-maps_raptor_node" id="d1495017-5fcc-4c16-8a00-e3494b66a88b"><svg x="-752" y="1193" overflow="visible"><g transform="scale(3.4501830121578787) matrix(0.707 0.409 -0.707 0.409 0 0)"><circle cx="0" cy="0" fill="transparent" r="31"></circle><svg width="48" height="48" x="-24" y="-24" style="fill: rgb(255, 255, 255);"><svg xmlns="http://www.w3.org/2000/svg" width="48" height="48" viewBox="0 0 48 48"><g fill="none" fill-rule="evenodd"><path fill="#232F3D" d="m34.59 29.79-3.593 3.591V21.76h-2V33.27l-3.441-3.497-1.426 1.403 5.195 5.28c.188.19.443.297.709.298h.004c.265 0 .52-.106.707-.293l5.259-5.258-1.414-1.414Zm-12.24-2.066 1.414-1.414-5.258-5.258a.996.996 0 0 0-.707-.293h-.004a.998.998 0 0 0-.709.3l-5.196 5.277 1.426 1.402 3.441-3.495v13.311h2V24.131l3.593 3.593Zm-2.017 9.848 7.067.007.002-2-7.067-.007-.002 2Zm25.693-8.442c0 2.487-.754 4.498-2.243 5.975-2.451 2.435-6.007 2.485-6.287 2.485h-.012l-4.763-.005.002-2 4.768.005c.04 0 2.998-.02 4.894-1.914 1.089-1.088 1.641-2.617 1.641-4.546 0-1.182-.325-2.95-3.13-4.67-1.474-.903-2.855-1.2-3.379-1.286a1 1 0 0 1-.832-1.105c-.178-2.095-1.159-3.56-2.703-4.029-1.335-.404-2.764.068-3.645 1.204a.986.986 0 0 1-.941.376.997.997 0 0 1-.786-.64c-.618-1.666-1.511-3.063-2.655-4.157-1.41-1.348-5.28-4.249-10.751-2.039-3.135 1.267-5.593 4.905-5.593 8.283 0 .377.024.755.071 1.122a1.001 1.001 0 0 1-.817 1.111C7.02 23.764 4 25.157 4 29.298c0 3.145 1.799 4.884 3.308 5.79a3.357 3.357 0 0 0 1.721.473l6.152.006-.002 2-6.151-.006a5.352 5.352 0 0 1-2.75-.759C4.681 35.844 2 33.595 2 29.298c0-3.715 2.084-6.547 5.623-7.719-.008-.17-.012-.34-.012-.512 0-4.204 2.943-8.562 6.845-10.137 4.545-1.837 9.361-.919 12.882 2.448 1.032.986 1.89 2.172 2.559 3.536a5.301 5.301 0 0 1 4.665-.788c2.189.664 3.672 2.597 4.053 5.234 1.133.282 2.31.772 3.326 1.395 2.749 1.683 4.085 3.77 4.085 6.375Z"></path></g></svg></svg></g></svg></g></g></g><g pointer-events="auto"><g><g class="cloud-maps_raptor_node" id="2ec8f253-d431-4598-90ff-6b2c2908809a"><svg x="-464" y="916" overflow="visible"><text stroke="#ffffff" stroke-width="4" font-family="Noto Sans" y="36.5" font-size="25pt" fill="#000000" font-weight="bold" transform="matrix(0.707 0.409 -0.707 0.409 0 0)" paint-order="stroke" xml:space="preserve"><tspan x="8" dy="0">Internet Gateway</tspan></text></svg></g></g><g><g class="cloud-maps_raptor_node" id="69e285a8-768f-4d1d-b887-00880378cfaa"><svg x="-848" y="1193" overflow="visible"><text stroke="#ffffff" stroke-width="4" font-family="Noto Sans" y="36.5" font-size="25pt" fill="#000000" font-weight="bold" transform="matrix(0.707 0.409 -0.707 0.409 0 0)" paint-order="stroke" xml:space="preserve"><tspan x="8" dy="0">Internet</tspan></text></svg></g></g><g><g class="cloud-maps_raptor_node" id="c52dcd8e-da86-45ab-8617-9418c1682b00" transform="translate(0 0)"><svg x="-336" y="305" overflow="visible"><text stroke="#000000" stroke-width="2" font-family="Noto Sans" y="46.76" font-size="34pt" fill="#ffffff" font-weight="bold" transform="matrix(0.707 -0.409 0.707 0.409 0 0)" paint-order="stroke" xml:space="preserve"><tspan x="8" dy="0">Availability Zone</tspan></text></svg></g></g><g><g class="cloud-maps_raptor_node" id="0b6abb8e-7e91-40b7-9a86-4566ad4b41a5"><svg x="-368" y="546" overflow="visible"><text stroke="#ffffff" stroke-width="4" font-family="Noto Sans" y="36.5" font-size="25pt" fill="#000000" font-weight="bold" transform="matrix(0.707 0.409 -0.707 0.409 0 0)" paint-order="stroke" xml:space="preserve"><tspan x="8" dy="0">NAT Gateway</tspan></text></svg></g></g><g><g class="cloud-maps_raptor_node" id="7b8135b7-4678-42cc-900c-e2ea22fb9192" transform="translate(0 0)"><svg x="-720" y="527" overflow="visible"><text stroke="#000000" stroke-width="2" font-family="Noto Sans" y="36.5" font-size="25pt" fill="#ffffff" font-weight="bold" transform="matrix(0.707 0.409 -0.707 0.409 0 0)" paint-order="stroke" xml:space="preserve"><tspan x="8" dy="0">AZ</tspan></text></svg></g></g><g><g class="cloud-maps_raptor_node" id="ce6e95cf-bb74-484e-81f1-c1dc3b6862d2" transform="translate(0 0)"><svg x="-672" y="555" overflow="visible"><text stroke="#000000" stroke-width="2" font-family="Noto Sans" y="65" font-size="50pt" fill="#ffffff" font-weight="bold" transform="matrix(0.707 0.409 -0.707 0.409 0 0)" paint-order="stroke" xml:space="preserve"><tspan x="8" dy="0">A</tspan></text></svg></g></g><g><g class="cloud-maps_raptor_node" id="de84e3a5-6982-4e7d-96fb-7773497c068f"><svg x="1088" y="740" overflow="visible"><text stroke="#ffffff" stroke-width="4" font-family="Noto Sans" y="36.5" font-size="25pt" fill="#000000" font-weight="bold" transform="matrix(0.707 0.409 -0.707 0.409 0 0)" paint-order="stroke" xml:space="preserve"><tspan x="8" dy="0">Auto Scaling</tspan></text></svg></g></g><g><g class="cloud-maps_raptor_node" id="f9cdb169-c76c-4f7a-ab68-a17e82811607"><svg x="-64" y="703" overflow="visible"><text stroke="#ffffff" stroke-width="4" font-family="Noto Sans" y="36.5" font-size="25pt" fill="#000000" font-weight="bold" transform="matrix(0.707 0.409 -0.707 0.409 0 0)" paint-order="stroke" xml:space="preserve"><tspan x="8" dy="0">Load Balancer</tspan></text></svg></g></g><g><g class="cloud-maps_raptor_node" id="5407ac1e-d83e-4ca0-8a12-441c429c6a31" transform="translate(0 0)"><svg x="624" y="953" overflow="visible"><text stroke="#000000" stroke-width="2" font-family="Noto Sans" y="46.76" font-size="34pt" fill="#ffffff" font-weight="bold" transform="matrix(0.707 -0.409 0.707 0.409 0 0)" paint-order="stroke" xml:space="preserve"><tspan x="8" dy="0">Availability Zone</tspan></text></svg></g></g><g><g class="cloud-maps_raptor_node" id="ec662f87-00bb-4fb0-b4d8-b405470b08dc" transform="translate(0 0)"><svg x="272" y="1101" overflow="visible"><text stroke="#000000" stroke-width="2" font-family="Noto Sans" y="36.5" font-size="25pt" fill="#ffffff" font-weight="bold" transform="matrix(0.707 0.409 -0.707 0.409 0 0)" paint-order="stroke" xml:space="preserve"><tspan x="8" dy="0">AZ</tspan></text></svg></g></g><g><g class="cloud-maps_raptor_node" id="b612b959-d395-42b2-990a-0d36394785ef" transform="translate(0 0)"><svg x="320" y="1129" overflow="visible"><text stroke="#000000" stroke-width="2" font-family="Noto Sans" y="65" font-size="50pt" fill="#ffffff" font-weight="bold" transform="matrix(0.707 0.409 -0.707 0.409 0 0)" paint-order="stroke" xml:space="preserve"><tspan x="8" dy="0">B</tspan></text></svg></g></g><g><g class="cloud-maps_raptor_node" id="092e5854-66d0-4ee1-866d-e88a2c666eaa"><svg x="208" y="120" overflow="visible"><text stroke="#ffffff" stroke-width="4" font-family="Noto Sans" y="36.5" font-size="25pt" fill="#000000" font-weight="bold" transform="matrix(0.707 0.409 -0.707 0.409 0 0)" paint-order="stroke" xml:space="preserve"><tspan x="8" dy="0">EC2</tspan></text></svg></g></g><g><g class="cloud-maps_raptor_node" id="a8793248-4e92-4957-b8c2-7cab1c05f4d6"><svg x="1008" y="601" overflow="visible"><text stroke="#ffffff" stroke-width="4" font-family="Noto Sans" y="36.5" font-size="25pt" fill="#000000" font-weight="bold" transform="matrix(0.707 0.409 -0.707 0.409 0 0)" paint-order="stroke" xml:space="preserve"><tspan x="8" dy="0">EC2</tspan></text></svg></g></g><g><g class="cloud-maps_raptor_node" id="0b5ee2c4-31a5-4405-b8e7-31b72fce178b"><svg x="208" y="879" overflow="visible"><text stroke="#ffffff" stroke-width="4" font-family="Noto Sans" y="36.5" font-size="25pt" fill="#000000" font-weight="bold" transform="matrix(0.707 0.409 -0.707 0.409 0 0)" paint-order="stroke" xml:space="preserve"><tspan x="8" dy="0">NAT Gateway</tspan></text></svg></g></g><g><g class="cloud-maps_raptor_node" id="650bd699-bc5a-4486-adbc-80d01c6cdbab"><svg x="1248" y="74" overflow="visible"><text stroke="#ffffff" stroke-width="4" font-family="Noto Sans" y="36.5" font-size="25pt" fill="#000000" font-weight="bold" transform="matrix(0.707 0.409 -0.707 0.409 0 0)" paint-order="stroke" xml:space="preserve"><tspan x="8" dy="0">S3</tspan></text></svg></g></g><g><g class="cloud-maps_raptor_node" id="99b95eff-b168-479f-8f9c-f98fe6b43819"><svg x="976" y="231" overflow="visible"><text stroke="#ffffff" stroke-width="4" font-family="Noto Sans" y="36.5" font-size="25pt" fill="#000000" font-weight="bold" transform="matrix(0.707 0.409 -0.707 0.409 0 0)" paint-order="stroke" xml:space="preserve"><tspan x="8" dy="0">VPC Endpoint</tspan></text></svg></g></g></g></g></svg>